# xmcd
#
# Track frame offsets: 
#        150
#        17080
#        30990
#        46492
#        58930
#        72812
#        86800
#        100790
#        114512
#        125945
#        140207
#        149682
#
# Disc length: 2195 seconds
#
# Revision: 2
# Processed by: cddbd v1.5.2PL0 Copyright (c) Steve Scherf et al.
# Submitted via: ExactAudioCopyFreeDBPlugin 1.0
#
DISCID=b708910c
DTITLE=John Lee Hooker - John Lee Hooker  -  Plays And Sings The Blues
DYEAR=1961
DGENRE=Blues
TTITLE0=The Journey
TTITLE1=I Don't Want Your Money
TTITLE2=Hey, Baby
TTITLE3=Mad Man Blues
TTITLE4=Bluebird
TTITLE5=Worried Life Blues
TTITLE6=Apologize
TTITLE7=Lonely Boy Boogie
TTITLE8=Please Don't Go
TTITLE9=Dreamin' Blues
TTITLE10=Hey Boogie
TTITLE11=Just Me And My Telephone
EXTD=
EXTT0=
EXTT1=
EXTT2=
EXTT3=
EXTT4=
EXTT5=
EXTT6=
EXTT7=
EXTT8=
EXTT9=
EXTT10=
EXTT11=
PLAYORDER=
